<svg xmlns="http://www.w3.org/2000/svg" width="420" height="360" viewBox="0 0 420 360">
<rect width="420" height="360" fill="none"/>
<polygon points="72,52 112,52 246,214 206,214" fill="#2563EB"/><polygon points="76,82 106,82 211,207 185,207" fill="#F8FAFC" opacity="0.98"/><polygon points="72,52 72,250 112,250 112,132" fill="#2563EB"/><polygon points="206,80 246,80 246,250 206,250" fill="#2563EB"/><path d="M252 70 H350 L330 98 H278 V128 H335 L318 153 H278 V205 H238 V102 Z" fill="#2563EB"/><path d="M254 100 H328 L316 118 H276 V141 H321 L310 158 H276 V214 H253 Z" fill="#F8FAFC" opacity="0.93"/><path d="M210 180 H98 L58 140 H25" stroke="#00B8D9" stroke-width="8" fill="none" stroke-linecap="round" stroke-linejoin="round"/><path d="M214 181 V300" stroke="#00B8D9" stroke-width="8" fill="none" stroke-linecap="round"/><path d="M214 163 V25" stroke="#00B8D9" stroke-width="8" fill="none" stroke-linecap="round"/><path d="M227 178 H332" stroke="#00B8D9" stroke-width="8" fill="none" stroke-linecap="round"/><circle cx="25" cy="140" r="16" fill="#F8FAFC" stroke="#00B8D9" stroke-width="8"/><circle cx="332" cy="178" r="16" fill="#F8FAFC" stroke="#00B8D9" stroke-width="8"/><circle cx="214" cy="25" r="16" fill="#F8FAFC" stroke="#00B8D9" stroke-width="8"/><circle cx="214" cy="300" r="16" fill="#F8FAFC" stroke="#00B8D9" stroke-width="8"/><circle cx="214" cy="178" r="34" fill="#F8FAFC"/><polygon points="214.0,154.0 220.1,171.9 238.0,178.0 220.1,184.1 214.0,202.0 207.9,184.1 190.0,178.0 207.9,171.9" fill="#C7793F"/>
</svg>
